<svg xmlns="http://www.w3.org/2000/svg" width="1120" height="700" viewBox="0 0 1120 700" role="img" aria-labelledby="title desc">
  <title id="title">Discordチャンネル作成画面の例</title>
  <desc id="desc">テキストチャンネルのプラスボタンから通知用チャンネルを作成する画面例。</desc>
  <rect width="1120" height="700" fill="#eef1f7"/>
  <rect x="60" y="55" width="1000" height="590" rx="16" fill="#313338"/>
  <rect x="60" y="55" width="88" height="590" rx="16" fill="#1e1f22"/>
  <rect x="148" y="55" width="260" height="590" fill="#2b2d31"/>
  <text x="180" y="105" fill="#ffffff" font-family="Arial, sans-serif" font-size="22" font-weight="700">虎威 通知</text>
  <text x="180" y="170" fill="#b5bac1" font-family="Arial, sans-serif" font-size="16" font-weight="700">テキストチャンネル</text>
  <text x="363" y="174" fill="#ffffff" font-family="Arial, sans-serif" font-size="25" font-weight="700">+</text>
  <rect x="520" y="130" width="420" height="400" rx="18" fill="#ffffff"/>
  <text x="575" y="190" fill="#23272a" font-family="Arial, sans-serif" font-size="28" font-weight="700">チャンネルを作成</text>
  <rect x="585" y="240" width="280" height="44" rx="22" fill="#e3e5e8"/>
  <circle cx="618" cy="262" r="13" fill="#5865f2"/>
  <text x="642" y="269" fill="#23272a" font-family="Arial, sans-serif" font-size="18">テキスト</text>
  <text x="585" y="336" fill="#4e5058" font-family="Arial, sans-serif" font-size="16" font-weight="700">チャンネル名</text>
  <rect x="585" y="356" width="280" height="50" rx="8" fill="#f2f3f5" stroke="#d5d8de"/>
  <text x="610" y="388" fill="#23272a" font-family="Arial, sans-serif" font-size="18">torai-notifications</text>
  <rect x="663" y="446" width="202" height="48" rx="8" fill="#5865f2"/>
  <text x="694" y="477" fill="#ffffff" font-family="Arial, sans-serif" font-size="18" font-weight="700">チャンネルを作成</text>
  <path d="M385 166h125" stroke="#5865f2" stroke-width="5" stroke-linecap="round"/>
</svg>
